<mxfile host="app.diagrams.net" modified="2021-06-10T19:04:48.257Z" agent="5.0 (Windows)" etag="mwhCtps-DsL3mFmXXUPa" version="14.7.7" type="github">
  <diagram id="Agefa8liuK-02etcuSdX" name="Page-1">
    <mxGraphModel dx="865" dy="455" grid="1" gridSize="10" guides="1" tooltips="1" connect="1" arrows="1" fold="1" page="1" pageScale="1" pageWidth="850" pageHeight="1100" math="0" shadow="0">
      <root>
        <mxCell id="0" />
        <mxCell id="1" parent="0" />
        <mxCell id="zcVVExjQ5X0M8JFWXyjX-1" value="" style="shape=cube;whiteSpace=wrap;html=1;boundedLbl=1;backgroundOutline=1;darkOpacity=0.05;darkOpacity2=0.1;" vertex="1" parent="1">
          <mxGeometry x="174" y="190" width="570" height="230" as="geometry" />
        </mxCell>
        <mxCell id="zcVVExjQ5X0M8JFWXyjX-3" value="PHP" style="rounded=0;whiteSpace=wrap;html=1;" vertex="1" parent="1">
          <mxGeometry x="229" y="333" width="120" height="60" as="geometry" />
        </mxCell>
        <mxCell id="zcVVExjQ5X0M8JFWXyjX-4" value="&lt;div&gt;MySQL&lt;/div&gt;" style="rounded=0;whiteSpace=wrap;html=1;" vertex="1" parent="1">
          <mxGeometry x="559" y="333" width="120" height="60" as="geometry" />
        </mxCell>
        <mxCell id="zcVVExjQ5X0M8JFWXyjX-5" value="&lt;div&gt;Nginx&lt;/div&gt;" style="rounded=0;whiteSpace=wrap;html=1;" vertex="1" parent="1">
          <mxGeometry x="399" y="233" width="120" height="60" as="geometry" />
        </mxCell>
        <mxCell id="zcVVExjQ5X0M8JFWXyjX-6" value="" style="endArrow=none;html=1;entryX=0.5;entryY=1;entryDx=0;entryDy=0;exitX=0.5;exitY=0;exitDx=0;exitDy=0;" edge="1" parent="1" source="zcVVExjQ5X0M8JFWXyjX-3" target="zcVVExjQ5X0M8JFWXyjX-5">
          <mxGeometry width="50" height="50" relative="1" as="geometry">
            <mxPoint x="400" y="310" as="sourcePoint" />
            <mxPoint x="450" y="260" as="targetPoint" />
          </mxGeometry>
        </mxCell>
        <mxCell id="zcVVExjQ5X0M8JFWXyjX-10" value="" style="endArrow=none;html=1;exitX=1;exitY=0.5;exitDx=0;exitDy=0;entryX=0;entryY=0.5;entryDx=0;entryDy=0;" edge="1" parent="1" source="zcVVExjQ5X0M8JFWXyjX-3" target="zcVVExjQ5X0M8JFWXyjX-4">
          <mxGeometry width="50" height="50" relative="1" as="geometry">
            <mxPoint x="399" y="343" as="sourcePoint" />
            <mxPoint x="449" y="293" as="targetPoint" />
          </mxGeometry>
        </mxCell>
        <mxCell id="zcVVExjQ5X0M8JFWXyjX-12" value="Actor" style="shape=umlActor;verticalLabelPosition=bottom;verticalAlign=top;html=1;outlineConnect=0;" vertex="1" parent="1">
          <mxGeometry x="290" y="80" width="30" height="60" as="geometry" />
        </mxCell>
        <mxCell id="zcVVExjQ5X0M8JFWXyjX-13" value="" style="endArrow=classic;html=1;entryX=0.5;entryY=0;entryDx=0;entryDy=0;" edge="1" parent="1" source="zcVVExjQ5X0M8JFWXyjX-12" target="zcVVExjQ5X0M8JFWXyjX-5">
          <mxGeometry width="50" height="50" relative="1" as="geometry">
            <mxPoint x="400" y="230" as="sourcePoint" />
            <mxPoint x="450" y="180" as="targetPoint" />
          </mxGeometry>
        </mxCell>
        <mxCell id="zcVVExjQ5X0M8JFWXyjX-15" value="Docker network" style="text;html=1;strokeColor=none;fillColor=none;align=center;verticalAlign=middle;whiteSpace=wrap;rounded=0;" vertex="1" parent="1">
          <mxGeometry x="700" y="220" width="40" height="20" as="geometry" />
        </mxCell>
      </root>
    </mxGraphModel>
  </diagram>
</mxfile>
